<svg id="Capa_1" enable-background="new 0 0 512 512" height="512" viewBox="0 0 512 512" width="512" xmlns="http://www.w3.org/2000/svg"><g><path d="m512 60h-256l-20 105 20 317h256z" fill="#4dc3ff"/><path d="m0 60h256v422h-256z" fill="#9df"/><path d="m482 165-246-20 20 307h226z" fill="#e6ecf2"/><path d="m30 165v287h226v-307z" fill="#fff5f5"/><path d="m482 90h-226l-20 37.5 20 37.5h226z" fill="#2e8ae6"/><path d="m30 90h226v75h-226z" fill="#4dc3ff"/><path d="m90 30h30v90h-30z" fill="#fff5f5"/><path d="m165.5 30h30v90h-30z" fill="#fff5f5"/><path d="m316.5 30h30v90h-30z" fill="#e6ecf2"/><path d="m392 30h30v90h-30z" fill="#e6ecf2"/><path d="m143 240.635 24.487 49.617 54.756 7.957-39.621 38.621 9.353 54.535-48.975-25.748-48.975 25.748 9.353-54.535-39.621-38.621 54.756-7.957z" fill="#fd3"/><g fill="#283d66"><path d="m422 211h30v30h-30z"/><path d="m422 271h30v30h-30z"/><path d="m422 331h30v30h-30z"/><path d="m422 391h30v30h-30z"/><path d="m362 211h30v30h-30z"/><path d="m362 271h30v30h-30z"/><path d="m362 331h30v30h-30z"/><path d="m362 391h30v30h-30z"/><path d="m302 211h30v30h-30z"/><path d="m302 271h30v30h-30z"/><path d="m302 331h30v30h-30z"/><path d="m302 391h30v30h-30z"/></g><path d="m271 30h-15l-10 45 10 45h15z" fill="#e6ecf2"/><path d="m241 30h15v90h-15z" fill="#fff5f5"/></g></svg>