<svg height="512" viewBox="0 0 58 58" width="512" xmlns="http://www.w3.org/2000/svg"><g id="Page-1" fill="none" fill-rule="evenodd"><g id="040---Search-Schedule" fill-rule="nonzero"><path id="Shape" d="m48.571 45.91 8.052 5.955c.751866.5578348 1.2410536 1.4004819 1.3526577 2.3300122.1116042.9295303-.1642104 1.8640275-.7626577 2.5839878-.6589022.7875381-1.6378499 1.2358992-2.6645569 1.2203754s-1.9916519-.4932766-2.6264431-1.3003754l-6.222-7.957z" fill="#f0c419"/><path id="Shape" d="m51.74 48.26-3.6 3.6-2.44-3.12 2.87-2.83z" fill="#f29c1f"/><path id="Shape" d="m48 5v7h-48v-7c.0032948-1.10320187.89679813-1.9967052 2-2h44c1.1032019.0032948 1.9967052.89679813 2 2z" fill="#e64c3c"/><path id="Shape" d="m48 12v13.41l-24.49 20.59h-21.51c-1.10320187-.0032948-1.9967052-.8967981-2-2v-32z" fill="#ecf0f1"/><g fill="#95a5a5"><rect id="Rectangle-path" height="8" rx="2" width="4" x="4"/><rect id="Rectangle-path" height="8" rx="2" width="4" x="40"/><rect id="Rectangle-path" height="5" rx="1" width="7" x="4" y="18"/><rect id="Rectangle-path" height="5" rx="1" width="7" x="15" y="18"/><path id="Shape" d="m20.5 32h-4.5c-.5522847 0-1-.4477153-1-1v-3c0-.5522847.4477153-1 1-1h5c.5522847 0 1 .4477153 1 1v.25z"/><path id="Shape" d="m20 36h-4c-.5522847 0-1 .4477153-1 1v3c0 .5522847.4477153 1 1 1h4.8z"/><path id="Shape" d="m26.73 22.96c-.4306304-.120753-.7287202-.5127616-.73-.96v-3c0-.5522847.4477153-1 1-1h5c.5522847 0 1 .4477153 1 1v1.28z"/><rect id="Rectangle-path" height="5" rx="1" width="7" x="4" y="27"/><rect id="Rectangle-path" height="5" rx="1" width="7" x="4" y="36"/></g><circle id="Oval" cx="36" cy="36" fill="#3b97d3" r="16"/><circle id="Oval" cx="36" cy="36" fill="#2980ba" r="14"/><path id="Shape" d="m48 36c-.0011889 5.5552323-3.8151522 10.3834262-9.2191636 11.6707754-5.4040113 1.2873493-10.9851636-1.3027304-13.4908364-6.2607754-.8528019-1.6755675-1.2949627-3.5299008-1.29-5.41.0055141-6.6251317 5.3748683-11.9944859 12-12 1.2603487-.0041317 2.5131101.1950945 3.71.59 4.9426232 1.6068156 8.2890929 6.2127527 8.29 11.41z" fill="#2fa8cc"/><path id="Shape" d="m41 30c-.0055141 6.6251317-5.3748683 11.9944859-12 12-1.2603487.0041317-2.5131101-.1950945-3.71-.59-.8528019-1.6755675-1.2949627-3.5299008-1.29-5.41.0055141-6.6251317 5.3748683-11.9944859 12-12 1.2603487-.0041317 2.5131101.1950945 3.71.59.8528019 1.6755675 1.2949627 3.5299008 1.29 5.41z" fill="#67b9cc"/><path id="Shape" d="m29 34c-.4043959-.0000863-.7689341-.2437275-.923678-.6173454-.1547439-.373618-.0692299-.8036603.216678-1.0896546l4-4c.3923789-.3789722 1.0160848-.3735524 1.4018186.0121814s.3911536 1.0094397.0121814 1.4018186l-4 4c-.1874927.1875494-.4418052.2929434-.707.293z" fill="#ecf0f1"/><path id="Shape" d="m29 41c-.4043959-.0000863-.7689341-.2437275-.923678-.6173454-.1547439-.373618-.0692299-.8036603.216678-1.0896546l11-11c.3923789-.3789722 1.0160848-.3735524 1.4018186.0121814s.3911536 1.0094397.0121814 1.4018186l-11 11c-.1874927.1875494-.4418052.2929434-.707.293z" fill="#ecf0f1"/><path id="Shape" d="m33 44c-.4043959-.0000863-.7689341-.2437275-.923678-.6173454-.1547439-.373618-.0692299-.8036603.216678-1.0896546l10-10c.3923789-.3789722 1.0160848-.3735524 1.4018186.0121814s.3911536 1.0094397.0121814 1.4018186l-10 10c-.1874927.1875494-.4418052.2929434-.707.293z" fill="#ecf0f1"/></g></g></svg>