<svg id="color" enable-background="new 0 0 24 24" height="512" viewBox="0 0 24 24" width="512" xmlns="http://www.w3.org/2000/svg"><path d="m21 1h-18c-1.654 0-3 1.346-3 3v16c0 1.654 1.346 3 3 3h18c1.654 0 3-1.346 3-3v-16c0-1.654-1.346-3-3-3z" fill="#607d8b"/><path d="m21 21h-18c-.551 0-1-.448-1-1v-14h20v14c0 .552-.449 1-1 1z" fill="#fff"/><path d="m12 1h-9c-1.654 0-3 1.346-3 3v16c0 1.654 1.346 3 3 3h9v-2h-9c-.551 0-1-.448-1-1v-14h10z" fill="#546d79"/><path d="m12 6h-10v14c0 .552.449 1 1 1h9z" fill="#dedede"/><path d="m9.819 13.012-1.5-1.75c-.204-.238-.537-.324-.83-.215-.294.108-.489.389-.489.703v.75h-3c-.552 0-1 .448-1 1s.448 1 1 1h3v.75c0 .314.195.595.49.704l.26.046c.215 0 .424-.092.569-.262l1.5-1.75c.241-.281.241-.695 0-.976z" fill="#ffc107"/><path d="m10 13.5h-7c0 .552.448 1 1 1h3v.75c0 .314.195.595.49.704l.26.046c.215 0 .424-.092.569-.262l1.5-1.75c.121-.14.181-.314.181-.488z" fill="#dea806"/><path d="m16 13c-1.103 0-2-.897-2-2s.897-2 2-2 2 .897 2 2-.897 2-2 2z" fill="#2196f3"/><path d="m19.25 18h-6.5c-.414 0-.75-.336-.75-.75v-.5c0-1.517 1.233-2.75 2.75-2.75h2.5c1.517 0 2.75 1.233 2.75 2.75v.5c0 .414-.336.75-.75.75z" fill="#2196f3"/><g fill="#1d83d4"><path d="m16 9c-1.103 0-2 .897-2 2s.897 2 2 2z"/><path d="m16 14h-1.25c-1.517 0-2.75 1.233-2.75 2.75v.5c0 .414.336.75.75.75h3.25z"/></g></svg>