<svg id="Capa_1" enable-background="new 0 0 512 512" height="512" viewBox="0 0 512 512" width="512" xmlns="http://www.w3.org/2000/svg"><g><path d="m512 256c0 141.385-114.615 256-256 256-27.783 0-54.532-4.426-79.58-12.611-1.23-.402-.751-3.629-1.973-4.049-3.216-1.106-6.404-2.273-9.56-3.502-.96-.374-3.622 2.063-4.576 1.679-10.207-4.116-20.088-8.871-29.594-14.216-1.615-.908-2.89-5.572-4.483-6.514-4.447-2.629-8.807-5.388-13.075-8.273-1.361-.92-3.042 1.887-4.385.941-65.791-46.329-108.774-122.873-108.774-209.455 0-141.385 114.615-256 256-256s256 114.615 256 256z" fill="#644189"/><path d="m474.4 243.183c0 114.937-93.175 208.112-208.112 208.112s-208.112-93.175-208.112-208.112 93.175-208.112 208.112-208.112 208.112 93.175 208.112 208.112z" fill="#754ca0"/><path d="m482.69 268.019-12.649 2.235-2.28-.712c-2.486-.776-5.121-.944-7.685-.491l-4.583.81c-3.275.579-6.294 2.146-8.652 4.492l-18.947 3.348-.886-.342c-5.099-1.966-10.639-2.503-16.021-1.552l-2.745.485c-5.692 1.006-10.973 3.634-15.208 7.568l-19.363 3.421-3.076-1.535c-4.75-2.371-10.136-3.152-15.364-2.228l-2.101.371c-6.302 1.113-11.928 4.624-15.698 9.795l-12.649 2.235-4.105-1.503c-2.884-1.056-6.035-1.14-8.972-.238l-3.087.948c-2.797.859-5.257 2.569-7.037 4.892l-18.947 3.348-5.341-1.601c-3.16-.947-6.497-1.141-9.745-.568l-7.444 1.315c-4.795.847-9.15 3.324-12.33 7.012l-22.193 3.921c-4.935.872-9.095-3.694-7.769-8.527l59.182-215.682s1.365-2.853 3.334-6.572c4.034-7.62 34.535 49.721 34.535 49.721-17.985 65.546 38.443 127.478 105.375 115.652l54.052-9.55z" fill="#1ed688"/><path d="m477.258 241.37-99.37 17.557c-50.741 8.965-93.52-37.986-79.885-87.676l22.504-82.014 41.036 35.306 9.948 11.62 35.594 30.624 4.512.82 27.291 23.48z" fill="#35e298"/><path d="m239.181 227.045 43.454 76.32-34.86 6.159-21.071-37.008zm81.484-137.673-27.181-23.386c-3.799-3.268-9.707-1.465-11.033 3.367l-3.756 13.689 114.339 200.818 34.86-6.159z" fill="#af65ad"/><path d="m413.611 252.615-34.86 6.159-70.695-124.162 12.451-45.375.158.135z" fill="#bb7bb9"/><path d="m271.764 108.3 101.907 178.98-36.239 6.403-78.638-138.113zm237.856 143.644-70.733-60.856 43.803 76.932 23.666-4.181c5.669-1.003 7.628-8.141 3.264-11.895z" fill="#ffc14f"/><path d="m301.126 159.87 56.804 99.765c-41.286-4.446-71.724-45.389-59.927-88.384zm183.742 70.777-45.98-39.56 29.52 51.846 25.503-4.506z" fill="#ffcd71"/><path d="m411.597 167.607-50.053-43.064 85.298 149.81 23.2-4.099z" fill="#1ab975"/><path d="m324.782 295.918-23.2 4.099-55.62-97.687 8.304-30.261zm107.776-46.65 14.283 25.085 23.2-4.099-14.283-25.085z" fill="#169b62"/><path d="m297.224 59.13-120.804 440.259c-5.452-1.782-10.824-3.741-16.109-5.873l120.434-438.908c1.249-4.551 5.95-7.227 10.501-5.979 4.55 1.249 7.227 5.95 5.978 10.501z" fill="#ff9100"/><path d="m290.729 229.452-9.342 8.387c-4.14-.071-8.006 2.061-10.153 5.601l-4.683 7.718-22.219 19.947c-5.045.235-9.854 2.206-13.612 5.58l-11.853 10.641c-3.359 3.016-5.705 6.996-6.715 11.397l-.368 1.602-8.061 7.237c-2.405.196-4.563 1.555-5.779 3.639l-1.898 3.252-16.619 14.92c-2.075.011-3.892 1.391-4.461 3.387l-.237.831-8.061 7.236-3.479.927c-3.286.876-6.319 2.516-8.85 4.788l-13.589 12.2c-3.329 2.989-5.646 6.939-6.628 11.304l-25.197 22.621s-14.275 5.8-15.702.997l-69.59-234.15c-1.428-4.803 2.635-9.456 7.587-8.688l21.509 3.334 3.094 1.69c2.43 1.327 5.369 1.327 7.798-.002l2.787.432c4.483.695 8.164 3.91 9.457 8.258l15.488 52.11c16.444 55.327 84.916 74.658 127.866 36.1l61.275-55.01z" fill="#ffd993"/><path d="m65.512 156.141 8.699 1.348 3.491 3.082c3.182 2.809 7.101 4.647 11.295 5.297l12.495 1.937c5.58.865 11.28-.428 15.94-3.616l28.432 4.407 8.005 3.462c4.092 1.77 8.749 1.682 12.771-.242l10.704 1.659.124.115c4.745 4.426 10.711 7.324 17.123 8.318l6.986 1.083c6.469 1.003 13.09.021 18.99-2.816l18.924 2.933 13.71 6.25c5.408 2.465 11.719 1.873 16.575-1.555l13.534 2.098c6.482 1.005 8.885 9.089 4.004 13.471l-71.54 64.225c-42.95 38.558-111.422 19.227-127.866-36.1z" fill="#ffe7c0"/><path d="m118.592 366.396-9.666 26.27-4.601 4.131c-3.729 3.348-9.674 1.669-11.101-3.134l-13.562-45.631 2.956-8.034c.134-.364.581-.497.892-.265l34.885 25.997c.206.154.286.425.197.666zm81.722-61.378c-.311-.232-.758-.099-.892.265l-3.374 9.169 7.677-6.892zm-58.402 17.358c-.311-.232-.758-.099-.892.265l-15.023 40.83c-.089.241-.008.512.198.666l7.929 5.909 32.547-29.219zm-118.279-162.862 15.176 51.062 6.864 5.115c.311.232.758.099.892-.265l15.023-40.83c.089-.241.008-.512-.198-.666l-31.115-23.188c-4.508-.084-7.978 4.278-6.642 8.772zm109.836 134.455 15.023-40.83c.089-.241.008-.512-.198-.666l-34.885-25.997c-.311-.232-.758-.099-.892.265l-15.023 40.83c-.089.241-.008.512.198.666l34.885 25.997c.311.231.758.099.892-.265zm-58.402 17.357 15.023-40.83c.089-.242.008-.512-.198-.666l-34.885-25.997c-.311-.232-.758-.099-.892.265l-2.956 8.034 16.151 54.344 6.864 5.115c.312.232.759.099.893-.265zm237.912-116.826-30.795-4.773-9.483 25.771c-.089.241-.008.512.198.666l17.831 13.288 25.763-23.129c4.283-3.846 2.174-10.941-3.514-11.823zm-83.657-2.474-15.023 40.83c-.089.241-.008.512.198.666l34.885 25.997c.311.232.758.099.892-.265l15.023-40.83c.089-.241.008-.512-.198-.666l-34.885-25.997c-.311-.232-.758-.099-.892.265z" fill="#cc59a8"/><path d="m74.211 157.489 43.222 6.7-12.466 33.88c-.134.364-.581.497-.892.265l-34.885-25.997c-.206-.153-.287-.424-.198-.666zm89.158 23.222 3.273-8.894-17.263-2.676-3.513-.545 16.612 12.38c.31.232.757.099.891-.265zm43.526 55.07-15.023 40.83c-.134.364-.581.497-.892.265l-34.885-25.997c-.206-.154-.287-.425-.198-.666l15.023-40.83c.134-.364.581-.497.892-.265l34.885 25.997c.206.154.286.425.198.666zm-58.403 17.358-11.11 30.195c-14.024-4.873-26.721-13.664-36.182-25.833l11.318-30.76c.134-.364.581-.497.892-.265l34.885 25.997c.206.153.286.424.197.666zm151.03-60.724-26.531 23.818-.092-.069c-.206-.154-.287-.425-.198-.666l9.483-25.771zm-34.225 26.009-2.591 7.043-26.769 24.032-21.439-15.977c-.206-.154-.287-.425-.198-.666l15.023-40.83c.134-.364.581-.497.892-.265l34.885 25.997c.205.153.285.424.197.666z" fill="#d473b5"/><path d="m134.09 311.228-15.023 40.83c-.134.365-.581.497-.892.265l-34.885-25.997c-.206-.154-.287-.425-.198-.666l15.023-40.83c.134-.364.581-.497.892-.265l34.885 25.997c.206.154.287.425.198.666zm-72.056-151.064 1.588-4.316-10.893-1.688 8.413 6.27c.311.23.758.098.892-.266zm27.644 93.011 15.023-40.83c.089-.241.008-.512-.198-.666l-34.885-25.997c-.311-.232-.758-.099-.892.265l-15.023 40.83c-.089.241-.008.512.198.666l34.885 25.997c.311.231.758.099.892-.265zm184.535-20.682c-.311-.232-.758-.099-.892.265l-6.77 18.4 14.836-13.319zm-81.919 60.712-34.885-25.997c-.311-.231-.758-.099-.892.265l-15.023 40.83c-.089.241-.008.512.198.666l33.039 24.621 4.698-4.218 13.063-35.501c.089-.242.008-.513-.198-.666zm22.626-43.09-15.023 40.83c-.089.241-.008.512.198.666l11.692 8.713 32.547-29.219-28.521-21.255c-.313-.232-.759-.099-.893.265z" fill="#169b62"/><path d="m75.621 190.156 28.882 21.523c.206.154.287.425.198.666l-11.765 31.975c-1.994-4.026-3.684-8.303-5.027-12.821zm52.399-21.832c-.311-.232-.758-.099-.892.265l-15.023 40.83c-.089.241-.008.512.198.666l34.885 25.997c.311.232.758.099.892-.265l15.023-40.83c.089-.241.008-.512-.198-.666zm42.487 23.738c-.089.241-.008.512.198.666l34.885 25.997c.311.232.758.099.892-.265l14.087-38.283-35.584-5.516-7.638-1.184zm56.087 65.823-10.783-8.035c-.311-.232-.758-.099-.892.265l-9.288 25.243c3.505-2.262 6.897-4.845 10.143-7.76zm38.29-56.783 4.893-13.298-30.284-4.694 24.5 18.258c.31.231.757.098.891-.266zm-82.875 84.438-24.6-18.332c-.311-.231-.758-.099-.892.265l-7.004 19.035c10.661 1.911 21.74 1.658 32.496-.968z" fill="#1ab975"/><path d="m130.717 479.301c-7.56-4.251-14.883-8.875-21.943-13.846l-90.521-304.572c2.988-7.461 6.317-14.749 9.967-21.844 1.172 1.026 2.077 2.385 2.553 3.988z" fill="#ffb52d"/><path d="m41.842 135.281c3.361 11.309-3.082 23.2-14.39 26.561s-23.2-3.082-26.561-14.39 3.082-23.2 14.39-26.561 23.2 3.082 26.561 14.39zm253.926-103.131c-11.377-3.122-23.13 3.57-26.252 14.947s3.57 23.13 14.947 26.252 23.13-3.57 26.252-14.947c3.121-11.377-3.571-23.131-14.947-26.252z" fill="#ffc14f"/><path d="m311.471 53.387c-5.208 4.487-12.483 6.383-19.61 4.427-9.704-2.663-15.999-11.605-15.704-21.238 5.208-4.486 12.483-6.383 19.61-4.427 9.704 2.664 16 11.606 15.704 21.238zm-296.19 67.504c-2.997.891-5.651 2.38-7.873 4.3-.066 2.218.214 4.484.881 6.727 3.361 11.308 15.253 17.751 26.561 14.39 2.997-.891 5.651-2.38 7.873-4.3.066-2.218-.214-4.484-.881-6.728-3.361-11.307-15.253-17.75-26.561-14.389z" fill="#ffcd71"/><path d="m52.664 394.63c13.062 13.062 13.062 34.314 0 47.376-2.929 2.929-7.677 2.929-10.606 0s-2.929-7.677 0-10.606c7.213-7.213 7.213-18.95 0-26.163-2.929-2.929-2.929-7.677 0-10.606 2.928-2.93 7.676-2.93 10.606-.001zm337.549-320.44c-4.143 0-7.5 3.357-7.5 7.5s3.357 7.5 7.5 7.5c10.201 0 18.5 8.299 18.5 18.5 0 4.143 3.357 7.5 7.5 7.5s7.5-3.357 7.5-7.5c0-18.472-15.029-33.5-33.5-33.5z" fill="#d473b5"/><path d="m270.002 394.63c13.062 13.062 13.062 34.314 0 47.376-2.929 2.929-7.677 2.929-10.606 0s-2.929-7.677 0-10.606c7.213-7.213 7.213-18.95 0-26.163-2.929-2.929-2.929-7.677 0-10.606 2.928-2.93 7.676-2.93 10.606-.001zm-174.56-365.025c-4.143 0-7.5 3.357-7.5 7.5s3.357 7.5 7.5 7.5c10.201 0 18.5 8.299 18.5 18.5 0 4.143 3.357 7.5 7.5 7.5s7.5-3.357 7.5-7.5c0-18.472-15.029-33.5-33.5-33.5z" fill="#7af4ab"/><path d="m460.756 421.93c0-4.143-3.357-7.5-7.5-7.5-10.201 0-18.5-8.299-18.5-18.5 0-4.143-3.357-7.5-7.5-7.5s-7.5 3.357-7.5 7.5c0 18.472 15.028 33.5 33.5 33.5 4.143 0 7.5-3.357 7.5-7.5zm-256.948-333.75c-4.143 0-7.5 3.357-7.5 7.5 0 10.201-8.299 18.5-18.5 18.5-4.143 0-7.5 3.357-7.5 7.5s3.357 7.5 7.5 7.5c18.472 0 33.5-15.028 33.5-33.5 0-4.143-3.357-7.5-7.5-7.5z" fill="#ffc14f"/><path d="m207.012 48.518c0 8.284-6.716 15-15 15s-15-6.716-15-15 6.716-15 15-15 15 6.715 15 15zm148.347 282.635c-8.284 0-15 6.716-15 15s6.716 15 15 15 15-6.716 15-15-6.716-15-15-15z" fill="#44bfd7"/><path d="m163.513 408.93c0 7.18-5.82 13-13 13s-13-5.82-13-13 5.82-13 13-13 13 5.821 13 13zm250.098-249.861c-7.18 0-13 5.82-13 13s5.82 13 13 13 13-5.82 13-13-5.82-13-13-13z" fill="#def4f8"/></g></svg>